<?xml version="1.0" encoding="UTF-8" standalone="no"?>
<svg xmlns="http://www.w3.org/2000/svg" width="2048" height="2048" viewBox="0 0 2048 2048">
  <rect width="2048" height="2048" rx="320" fill="#ffffff"/>
  <g transform="translate(1024 1024) scale(1.18) translate(-1024 -1024)">
    <path d="M 1354 808 L 1347 804 L 1342 804 L 1339 808 L 1332 893 L 1332 972 L 1340 1133 L 1340 1210 L 1334 1258 L 1326 1287 L 1314 1312 L 1302 1329 L 1283 1348 L 1259 1362 L 1238 1368 L 1211 1369 L 1182 1364 L 1157 1354 L 1132 1338 L 1115 1324 L 1083 1289 L 1057 1249 L 1041 1218 L 1019 1167 L 977 1049 L 949 987 L 933 962 L 923 951 L 908 942 L 897 941 L 886 946 L 880 954 L 876 964 L 873 989 L 874 1015 L 880 1056 L 910 1187 L 918 1250 L 918 1291 L 914 1322 L 908 1344 L 894 1374 L 894 1379 L 905 1385 L 911 1377 L 923 1350 L 931 1316 L 934 1275 L 933 1240 L 927 1192 L 901 1079 L 891 1024 L 889 982 L 891 969 L 899 957 L 907 959 L 924 977 L 948 1021 L 962 1054 L 1014 1197 L 1042 1255 L 1070 1298 L 1110 1341 L 1138 1361 L 1171 1377 L 1194 1383 L 1231 1385 L 1253 1381 L 1285 1367 L 1298 1357 L 1317 1337 L 1329 1319 L 1341 1292 L 1349 1264 L 1355 1223 L 1357 1161 L 1348 950 L 1349 868 Z M 1346 671 L 1339 672 L 1319 683 L 1292 706 L 1270 740 L 1260 773 L 1255 819 L 1256 867 L 1284 1076 L 1286 1165 L 1278 1218 L 1264 1255 L 1256 1268 L 1241 1284 L 1228 1292 L 1212 1296 L 1190 1295 L 1167 1286 L 1144 1269 L 1125 1249 L 1105 1219 L 1087 1184 L 1067 1134 L 1060 1109 L 1066 1114 L 1088 1146 L 1108 1167 L 1127 1183 L 1153 1197 L 1167 1201 L 1189 1201 L 1209 1192 L 1219 1182 L 1225 1172 L 1235 1138 L 1235 1074 L 1225 999 L 1201 866 L 1197 797 L 1201 757 L 1209 728 L 1225 696 L 1241 676 L 1241 670 L 1234 664 L 1230 664 L 1210 689 L 1194 721 L 1184 762 L 1182 784 L 1184 854 L 1194 925 L 1216 1045 L 1220 1084 L 1220 1130 L 1216 1151 L 1210 1166 L 1200 1178 L 1183 1186 L 1173 1186 L 1158 1182 L 1134 1168 L 1103 1139 L 1077 1105 L 1053 1065 L 1033 1024 L 1001 926 L 973 855 L 951 813 L 923 776 L 901 756 L 885 746 L 865 738 L 847 735 L 827 736 L 809 742 L 793 752 L 780 765 L 764 791 L 758 806 L 750 839 L 745 887 L 745 938 L 748 980 L 770 1138 L 774 1183 L 772 1261 L 764 1292 L 752 1317 L 732 1340 L 695 1363 L 696 1371 L 700 1375 L 705 1375 L 722 1367 L 753 1342 L 763 1330 L 775 1309 L 785 1277 L 789 1253 L 791 1203 L 785 1129 L 763 970 L 761 945 L 763 861 L 769 827 L 783 790 L 795 773 L 808 761 L 819 755 L 836 751 L 860 753 L 876 759 L 899 775 L 920 797 L 936 819 L 958 860 L 988 938 L 985 938 L 969 914 L 941 882 L 910 858 L 892 850 L 878 846 L 855 846 L 835 856 L 822 873 L 812 907 L 812 975 L 820 1036 L 844 1172 L 848 1215 L 848 1267 L 844 1295 L 836 1323 L 824 1347 L 804 1372 L 806 1378 L 815 1383 L 829 1368 L 841 1350 L 855 1317 L 863 1274 L 863 1206 L 859 1167 L 833 1015 L 827 964 L 827 914 L 833 888 L 846 869 L 863 861 L 888 865 L 919 884 L 952 918 L 978 955 L 1010 1016 L 1056 1150 L 1080 1207 L 1108 1253 L 1127 1275 L 1148 1293 L 1170 1305 L 1191 1311 L 1203 1312 L 1219 1311 L 1233 1307 L 1249 1298 L 1265 1283 L 1283 1253 L 1293 1224 L 1299 1195 L 1303 1145 L 1297 1048 L 1273 877 L 1271 845 L 1273 791 L 1281 757 L 1293 732 L 1312 709 L 1351 683 L 1351 679 Z M 1149 664 L 1143 661 L 1138 664 L 1126 688 L 1118 714 L 1113 750 L 1114 810 L 1120 856 L 1150 987 L 1158 1041 L 1156 1078 L 1148 1090 L 1142 1090 L 1128 1077 L 1117 1061 L 1101 1030 L 1083 988 L 1033 851 L 1003 789 L 975 746 L 941 708 L 906 682 L 886 672 L 859 664 L 826 661 L 799 664 L 772 674 L 751 688 L 728 712 L 708 749 L 696 791 L 692 819 L 690 864 L 699 1101 L 698 1178 L 692 1238 L 695 1241 L 705 1243 L 708 1238 L 715 1153 L 715 1074 L 707 920 L 707 835 L 711 799 L 719 766 L 729 742 L 743 720 L 760 702 L 779 689 L 799 681 L 824 677 L 853 679 L 874 685 L 903 699 L 927 717 L 958 750 L 994 806 L 1030 886 L 1076 1013 L 1104 1070 L 1116 1088 L 1127 1099 L 1137 1105 L 1150 1106 L 1161 1101 L 1167 1093 L 1173 1072 L 1174 1048 L 1169 1002 L 1139 871 L 1129 800 L 1129 744 L 1131 730 L 1139 700 L 1153 671 Z" fill="#000000" fill-rule="evenodd"/>
  </g>
</svg>
